# xmcd
#
# Track frame offsets: 
#        150
#        16547
#        29972
#        59518
#        75501
#        91275
#        107224
#        122743
#        141378
#        154772
#        174096
#        192866
#        207596
#        224857
#
# Disc length: 3212 seconds
#
# Revision: 0
# Processed by: cddbd v1.5.2PL0 Copyright (c) Steve Scherf et al.
# Submitted via: ExactAudioCopyFreeDBPlugin 1.0
#
DISCID=ca0c8a0e
DTITLE=Various Artist - Double Hits V2
DYEAR=2007
DGENRE=Dance
TTITLE0=Rashni - Baboushka
TTITLE1=Cosmo 4 - Peek-A-Boo
TTITLE2=Yamboo feat. Dr. Alban - Sing Halleujah
TTITLE3=Royal Gigolos - California Dreamin'
TTITLE4=Katelyn Tarver - Wonderful Crazy
TTITLE5=Collage - Noche De Ronda
TTITLE6=LDP - Down In One
TTITLE7=Reina Saba - Oaeo
TTITLE8=BananaRama - Look On The Floor
TTITLE9=Veronica - Theen (Heya, Sajna, Dil Lageye)
TTITLE10=Juggy D. - Kohl Aaja
TTITLE11=Cosmo 4 - Adios Amigos
TTITLE12=Arrested Development - Miracles
TTITLE13=Crossroads - Str8 To The Top
EXTD=
EXTT0=
EXTT1=
EXTT2=
EXTT3=
EXTT4=
EXTT5=
EXTT6=
EXTT7=
EXTT8=
EXTT9=
EXTT10=
EXTT11=
EXTT12=
EXTT13=
PLAYORDER=
